# xmcd
#
# Track frame offsets:
#	150
#	17572
#	29462
#	51390
#	68592
#	93125
#	109742
#	128105
#	146545
#	161980
#	173590
#	187632
#
# Disc length: 2869 seconds
#
# Revision: 18
# Processed by: cddbd v1.5.2PL0 Copyright (c) Steve Scherf et al.
# Submitted via: audiograbber 1.83.01
#
DISCID=950b330c
DTITLE=George Harrison - Brainwashed
DYEAR=2002
DGENRE=Rock
TTITLE0=Any Road
TTITLE1=P2 Vatican Blues (Last Saturday Night)
TTITLE2=Pisces Fish
TTITLE3=Looking For My Life
TTITLE4=Rising Sun
TTITLE5=Marwa Blues
TTITLE6=Stuck Inside A Cloud
TTITLE7=Run So Far
TTITLE8=Never Get Over You
TTITLE9=Between The Devil And The Deep Blue Sea
TTITLE10=Rocking Chair In Hawaii
TTITLE11=Brainwashed
EXTD=his death in 2001. YEAR: 2002
EXTT0=
EXTT1=
EXTT2=
EXTT3=
EXTT4=
EXTT5=
EXTT6=
EXTT7=
EXTT8=
EXTT9=
EXTT10=
EXTT11=
PLAYORDER=
